<svg xmlns="http://www.w3.org/2000/svg" width="400" height="400" viewBox="0 0 400 400">
<path fill="currentColor" fill-rule="evenodd" d="M217.5 354.0 C320.2 342.2 382.3 235.3 341.8 139.8 C291.9 22.4 126.4 15.2 68.1 128.0 C11.7 237.3 97.8 367.7 217.5 354.0 Z M183.0 328.5 C89.1 313.6 44.1 203.2 100.0 124.8 C159.5 41.4 287.5 60.5 321.4 157.8 C353.2 249.1 276.8 343.3 183.0 328.5 Z M207.1 315.7 C214.6 310.0 210.9 298.4 201.6 298.6 C196.5 298.7 195.7 297.5 199.0 294.5 C200.4 293.2 202.0 292.9 204.9 293.3 C209.6 293.9 211.1 291.9 207.7 289.5 C198.8 283.2 187.9 297.0 192.0 309.4 C194.1 315.9 202.4 319.3 207.1 315.7 Z M198.8 311.9 C196.7 310.7 196.4 306.0 198.2 304.2 C201.2 301.2 206.0 303.6 206.0 308.2 C206.0 312.1 202.3 314.0 198.8 311.9 Z M156.6 298.6 C162.5 293.6 158.5 283.6 150.5 283.6 C142.8 283.6 138.7 292.9 144.0 298.5 C147.2 301.9 152.8 301.9 156.6 298.6 Z M259.8 299.0 C266.8 292.4 260.1 281.0 251.1 284.1 C245.1 286.2 243.4 293.0 247.6 297.9 C250.8 301.7 256.3 302.2 259.8 299.0 Z M119.1 260.1 C122.3 256.8 122.7 254.3 120.5 250.1 C117.6 244.5 109.9 243.8 106.0 248.7 C98.9 257.7 111.0 268.2 119.1 260.1 Z M298.1 260.1 C301.3 256.8 301.7 254.3 299.5 250.1 C296.6 244.5 288.9 243.8 285.0 248.7 C278.0 257.6 290.1 268.0 298.1 260.1 Z M208.0 212.0 C210.8 210.5 213.0 207.3 214.3 202.9 C215.5 198.9 217.4 197.0 235.5 181.7 C267.1 155.2 267.7 154.6 266.1 152.7 C263.9 149.9 263.5 150.2 237.6 172.0 L212.6 192.9 L209.6 190.8 C207.6 189.3 205.1 188.6 201.7 188.6 L196.7 188.5 L174.6 168.7 C146.8 143.7 144.9 142.5 141.9 148.2 C140.3 151.1 141.6 152.5 166.4 175.5 C185.6 193.3 189.0 196.9 189.0 199.2 C189.0 209.7 199.1 216.5 208.0 212.0 Z M103.8 203.4 C110.6 195.7 99.2 185.6 91.9 192.9 C88.6 196.2 88.2 199.4 90.6 202.8 C93.9 207.6 99.8 207.8 103.8 203.4 Z M312.1 204.1 C317.2 199.0 313.6 190.0 306.5 190.0 C303.2 190.0 298.0 195.0 298.0 198.2 C298.0 205.7 306.8 209.4 312.1 204.1 Z M115.9 154.9 C125.1 151.7 122.7 138.0 112.9 138.0 C100.9 138.0 100.7 151.3 112.6 156.0 C112.7 156.0 114.1 155.5 115.9 154.9 Z M294.9 154.9 C304.1 151.7 301.7 138.0 291.9 138.0 C280.0 138.0 279.8 151.4 291.6 156.0 C291.7 156.0 293.1 155.5 294.9 154.9 Z M194.8 107.2 C195.1 88.9 194.8 88.2 188.0 93.8 C184.5 96.8 184.5 99.0 188.1 99.0 C189.9 99.0 190.0 99.8 190.0 110.8 C190.0 123.0 190.3 124.3 193.0 123.8 C194.3 123.5 194.5 121.0 194.8 107.2 Z M222.5 122.0 C222.5 120.9 221.2 120.4 218.0 120.2 C210.5 119.7 210.4 119.5 215.5 113.8 C220.9 107.8 222.0 105.4 222.0 100.0 C222.0 88.8 203.2 87.8 202.7 99.0 C202.4 103.6 205.3 104.4 206.8 100.1 C208.8 94.3 214.8 93.6 217.0 98.9 C218.6 102.9 216.7 106.3 208.5 113.7 C198.7 122.8 199.2 124.1 212.2 123.8 C220.6 123.6 222.5 123.2 222.5 122.0 Z M155.2 116.9 C162.8 112.8 159.3 100.0 150.5 100.0 C146.6 100.0 144.0 101.8 142.4 105.6 C139.1 113.6 147.4 121.0 155.2 116.9 Z M260.1 115.1 C268.1 107.1 256.9 95.0 248.3 102.4 C242.3 107.5 246.2 118.0 254.1 118.0 C256.1 118.0 258.1 117.0 260.1 115.1 Z"></path>
</svg>