<svg xmlns="http://www.w3.org/2000/svg" width="400" height="400" viewBox="0 0 400 400">
<path fill="currentColor" fill-rule="evenodd" d="M133.2 286.8 C134.7 285.6 133.9 282.5 125.4 256.6 C111.8 214.8 114.2 218.0 131.0 264.0 C137.6 282.0 138.9 284.0 141.9 282.1 C143.6 281.0 141.3 273.9 125.3 232.2 C119.5 217.1 115.2 204.4 115.6 204.0 C116.1 203.5 125.9 202.4 137.5 201.5 C149.1 200.6 162.1 199.2 166.4 198.4 C176.2 196.6 175.9 196.4 172.4 205.6 C168.8 215.0 168.4 215.1 165.3 207.2 C163.0 201.6 162.5 201.0 159.9 201.0 C156.2 201.0 156.2 200.6 161.4 213.5 L165.8 224.4 L160.8 238.5 C149.0 271.7 148.7 273.0 152.9 273.0 C154.3 273.0 155.3 271.6 156.8 267.2 C162.5 250.2 168.3 235.0 169.0 235.0 C169.5 235.0 171.6 239.6 173.8 245.2 C189.1 284.6 188.4 283.3 191.9 281.1 C193.1 280.3 191.3 275.0 182.6 252.2 L171.9 224.3 L176.4 211.9 C178.8 205.1 181.1 198.8 181.5 197.9 C181.8 197.0 183.2 195.8 184.6 195.2 C187.8 193.7 188.0 189.3 184.8 188.5 C183.5 188.2 176.0 187.9 168.0 187.7 C156.4 187.5 153.6 187.2 153.8 186.1 C154.1 184.6 131.5 123.6 129.4 120.2 C127.6 117.4 95.0 120.3 80.8 124.6 C77.4 125.6 78.3 129.3 92.0 172.8 L106.0 217.2 L96.5 247.4 C85.0 284.0 85.1 283.5 88.0 284.3 C90.7 285.0 90.7 285.1 100.6 253.7 C105.1 239.3 108.8 229.1 109.4 229.3 C110.0 229.5 114.6 242.3 119.6 257.7 C130.5 291.1 129.7 289.5 133.2 286.8 Z M283.4 258.5 C288.7 242.3 293.4 229.0 293.9 229.0 C294.3 229.0 296.7 235.4 299.3 243.2 C301.8 251.1 305.8 263.6 308.2 271.0 C312.0 282.8 312.8 284.5 314.5 284.2 C318.3 283.5 318.6 285.1 305.9 245.3 L296.9 217.1 L304.9 191.8 C325.4 126.7 325.4 126.8 322.2 125.1 C315.4 121.5 274.6 117.1 273.1 119.8 C270.8 124.1 249.9 184.2 250.2 185.7 C250.5 187.3 249.2 187.5 235.1 187.8 C225.8 187.9 219.1 188.5 218.3 189.1 C216.0 191.1 216.8 194.0 219.9 195.1 C223.0 196.2 223.2 196.7 229.4 214.4 L232.8 224.3 L231.0 229.1 C219.2 259.0 211.9 280.3 213.1 281.1 C215.3 282.4 216.7 282.2 217.5 280.2 C217.9 279.3 221.8 269.1 226.2 257.5 C230.6 245.9 234.6 235.8 235.0 235.0 C236.0 233.2 236.4 234.0 244.5 256.8 C249.2 270.1 250.6 273.0 252.1 273.0 C255.8 273.0 255.2 269.9 247.1 247.1 L238.9 224.2 L243.0 213.5 C247.8 200.7 247.8 200.8 244.2 201.2 C241.9 201.5 241.2 202.4 239.1 207.8 C236.3 215.0 235.8 214.8 232.4 205.5 C229.4 197.1 229.7 196.8 239.0 198.5 C243.1 199.3 255.7 200.6 266.9 201.4 C278.2 202.3 287.6 203.2 287.9 203.5 C288.1 203.8 285.1 212.9 281.1 223.8 C263.9 270.4 260.7 280.3 262.7 281.7 C265.6 283.9 266.0 283.2 273.0 263.5 C290.7 213.8 292.8 210.5 278.6 254.7 C267.5 289.3 267.8 287.6 272.6 287.9 C273.3 288.0 278.1 274.9 283.4 258.5 Z M103.4 188.5 C99.9 179.4 90.3 147.3 90.9 146.7 C91.6 146.0 126.2 140.0 129.6 140.0 C130.9 140.0 135.0 149.3 135.0 152.4 C135.0 153.6 132.8 161.3 130.0 169.5 C127.2 177.7 125.0 185.2 125.0 186.1 C125.0 187.5 123.6 187.9 117.2 188.4 C113.0 188.8 108.3 189.3 106.7 189.6 C104.8 190.0 103.8 189.7 103.4 188.5 Z M295.0 189.5 C294.2 189.3 290.0 188.8 285.7 188.5 C280.4 188.0 278.0 187.4 278.3 186.7 C278.5 186.0 276.3 178.5 273.4 169.8 C270.4 161.2 268.0 153.3 268.0 152.3 C268.0 149.6 271.6 140.6 272.9 140.2 C273.9 139.9 304.4 144.4 309.8 145.7 C312.9 146.4 312.8 147.0 305.7 169.5 C299.5 189.4 299.0 190.3 295.0 189.5 Z M130.0 186.2 C130.6 185.3 132.5 180.0 134.3 174.6 C138.6 161.8 139.0 161.8 144.1 174.9 C146.4 181.0 148.7 186.0 149.2 186.0 C149.7 186.0 149.8 186.4 149.5 187.0 C148.3 189.0 128.8 188.3 130.0 186.2 Z M253.6 187.1 C253.3 186.6 253.6 186.0 254.3 185.7 C255.1 185.4 256.9 181.7 258.5 177.3 C264.9 159.8 263.9 159.8 269.9 176.9 L273.7 188.0 L263.9 188.0 C258.5 188.0 253.9 187.6 253.6 187.1 Z"></path>
</svg>