<svg xmlns="http://www.w3.org/2000/svg" width="400" height="400" viewBox="0 0 400 400">
<path fill="currentColor" fill-rule="evenodd" d="M213.5 310.9 C284.7 302.2 328.9 229.6 304.6 161.4 C269.9 64.4 132.5 63.6 96.2 160.3 C66.7 238.9 130.7 321.0 213.5 310.9 Z M188.5 309.0 C53.1 294.2 64.3 90.0 200.5 90.6 C336.9 91.1 346.6 295.0 210.9 309.0 C199.9 310.1 198.9 310.1 188.5 309.0 Z M184.6 255.0 C233.2 204.7 246.0 191.2 246.0 190.1 C246.0 189.3 240.7 189.0 228.1 189.0 C218.2 189.0 209.9 188.6 209.6 188.1 C209.3 187.7 214.7 174.0 221.5 157.9 C228.4 141.7 234.0 128.2 234.0 127.8 C234.0 123.7 228.8 129.2 165.2 198.8 C151.3 214.1 150.9 213.5 173.7 212.6 C189.0 212.0 192.0 212.2 192.0 213.3 C192.0 214.1 185.8 227.7 178.1 243.6 C160.2 281.0 159.9 280.5 184.6 255.0 Z M172.0 263.1 C172.0 262.5 177.4 250.8 184.0 237.0 C190.6 223.2 196.0 211.4 196.0 210.8 C196.0 210.0 190.6 209.9 178.0 210.2 C168.1 210.5 159.7 210.4 159.5 210.0 C158.8 208.9 224.4 137.0 226.8 136.2 C228.3 135.7 227.6 137.5 215.1 167.0 C203.9 193.3 203.0 191.0 224.0 191.0 C233.7 191.0 241.0 191.4 241.0 191.9 C241.0 192.8 173.2 264.0 172.4 264.0 C172.2 264.0 172.0 263.6 172.0 263.1 Z"></path>
</svg>