<svg xmlns="http://www.w3.org/2000/svg" width="400" height="400" viewBox="0 0 400 400">
<path fill="currentColor" fill-rule="evenodd" d="M186.8 284.3 C186.9 284.2 188.6 285.0 190.4 286.1 C202.1 293.0 219.6 287.9 223.5 276.5 L224.8 272.5 L278.2 272.0 L331.5 271.5 L331.8 205.2 L332.0 139.0 L325.0 133.9 L318.0 128.8 L318.0 123.9 C318.0 118.1 317.2 117.4 305.2 113.0 C263.8 97.9 223.4 106.4 207.6 133.4 L203.7 140.1 L200.7 134.5 C184.9 105.2 140.1 96.7 97.5 114.8 L90.5 117.8 L90.0 123.2 C89.5 128.5 89.5 128.5 82.6 133.3 C78.7 135.9 75.3 138.6 74.8 139.3 C73.9 140.7 73.7 268.0 74.6 270.4 C75.1 271.8 79.1 272.0 109.1 272.0 L143.0 272.0 L143.0 289.8 C143.0 308.3 143.6 311.3 146.7 309.4 C147.7 308.8 151.3 306.9 154.7 305.1 L160.9 301.8 L173.2 313.3 L185.5 324.9 L186.1 304.7 C186.4 293.6 186.7 284.4 186.8 284.3 Z M171.5 301.0 C163.6 293.0 163.0 292.9 155.5 297.1 L150.0 300.2 L150.0 272.0 L150.0 243.7 L156.8 244.3 C163.6 244.9 176.5 248.4 178.8 250.2 C180.2 251.4 180.6 308.0 179.2 308.0 C178.8 308.0 175.3 304.9 171.5 301.0 Z M195.0 279.9 C191.3 278.4 189.0 275.0 189.0 270.6 C189.0 268.4 188.3 265.9 187.4 264.9 C185.1 262.3 186.3 259.8 189.5 260.6 C192.9 261.4 192.9 258.7 189.5 257.2 C188.1 256.6 187.0 255.6 187.0 255.0 C187.0 253.3 188.1 253.8 192.1 257.5 C198.3 263.0 206.1 262.7 211.1 256.7 C223.9 241.4 260.3 237.6 301.5 247.1 C308.6 248.8 315.2 250.2 316.0 250.3 C317.3 250.5 317.6 243.4 318.0 193.5 L318.5 136.5 L318.8 193.6 C318.9 225.0 319.3 252.2 319.6 253.9 C321.5 263.3 322.0 251.7 322.0 198.6 C322.0 145.3 322.4 136.5 324.4 139.8 C324.8 140.5 325.5 257.1 325.1 263.2 C325.0 264.9 321.7 265.0 271.5 265.0 L218.0 265.0 L218.0 268.2 C218.0 278.5 206.4 284.4 195.0 279.9 Z M211.0 274.5 C214.1 271.7 213.7 268.6 210.2 269.5 C203.8 271.1 201.2 271.1 197.6 269.6 C194.4 268.3 193.8 268.3 193.3 269.5 C191.1 275.5 205.5 279.5 211.0 274.5 Z M82.0 202.5 C82.0 147.6 82.2 140.0 83.5 140.0 C84.8 140.0 85.0 147.2 85.0 198.6 C85.0 245.0 85.3 257.1 86.2 256.8 C87.2 256.4 87.6 243.2 87.8 196.2 C87.9 157.2 88.4 136.0 89.0 136.0 C89.7 136.0 90.0 156.1 90.0 193.5 C90.0 225.1 90.2 251.0 90.4 251.0 C90.7 251.0 95.5 249.9 101.2 248.5 C121.6 243.7 143.0 241.5 143.0 244.3 C143.0 245.4 139.6 246.0 129.8 246.9 C122.5 247.6 116.1 248.5 115.7 248.9 C113.9 250.7 117.3 251.0 127.7 250.0 C143.1 248.6 143.0 248.6 143.0 251.5 C143.0 254.0 142.9 254.0 134.8 254.1 C123.9 254.2 115.9 255.3 116.0 256.5 C116.0 257.1 121.0 257.4 129.6 257.1 C142.4 256.8 143.2 256.9 142.8 258.6 C142.5 260.4 140.9 260.5 114.2 260.8 C92.2 261.0 85.9 261.3 86.3 262.3 C86.6 263.2 93.7 263.6 114.6 264.0 L142.5 264.5 L112.2 264.8 L82.0 265.0 L82.0 202.5 Z M321.8 262.2 C322.1 261.3 311.5 261.0 271.1 261.0 C243.0 261.0 220.0 261.4 220.0 261.8 C220.0 262.3 220.3 263.0 220.7 263.3 C222.0 264.7 321.3 263.6 321.8 262.2 Z M219.2 259.6 C230.6 256.1 248.8 255.5 289.7 257.4 C294.7 257.6 293.7 255.6 288.3 254.6 C268.2 251.0 214.0 254.7 214.0 259.7 C214.0 261.3 213.5 261.3 219.2 259.6 Z M189.6 249.5 C175.4 237.9 144.1 234.0 113.5 239.9 C95.1 243.5 94.7 243.6 95.2 241.4 C96.5 234.6 149.6 229.7 167.3 234.8 C179.3 238.2 190.1 244.7 193.0 250.1 C194.4 252.6 193.1 252.5 189.6 249.5 Z M293.8 249.8 C292.4 245.8 230.0 245.0 230.0 249.0 C230.0 249.5 238.1 249.7 249.8 249.4 C260.6 249.1 273.6 249.3 278.5 249.8 C292.0 251.2 294.2 251.2 293.8 249.8 Z M211.0 248.0 C211.0 241.3 235.7 232.1 256.0 231.3 C276.3 230.5 312.0 236.7 312.0 241.1 C312.0 243.5 310.7 243.5 301.2 241.1 C266.7 232.4 235.6 234.0 216.8 245.5 C213.6 247.4 211.0 248.5 211.0 248.0 Z M193.6 241.4 C177.7 226.8 148.7 222.5 113.5 229.5 C105.8 231.0 98.6 232.3 97.5 232.4 C95.5 232.5 95.5 231.8 95.2 177.8 L95.0 123.1 L97.2 121.6 C127.3 101.9 182.9 111.4 196.5 138.5 L199.5 144.5 L199.8 195.2 C199.9 223.2 199.7 246.0 199.3 246.0 C198.9 245.9 196.3 243.9 193.6 241.4 Z M208.2 192.7 L208.5 145.5 L211.7 139.0 C225.1 111.8 265.3 103.5 305.6 119.7 L312.0 122.2 L312.0 177.7 L312.0 233.2 L309.2 232.5 C268.1 221.9 236.1 223.3 215.4 236.5 C212.4 238.4 209.5 240.0 209.0 240.0 C208.3 240.0 208.0 224.0 208.2 192.7 Z"></path>
</svg>