<svg xmlns="http://www.w3.org/2000/svg" width="400" height="400" viewBox="0 0 400 400">
<path fill="currentColor" fill-rule="evenodd" d="M242.9 280.6 C244.4 279.8 248.6 274.9 252.3 269.7 C260.2 258.6 263.4 256.8 269.7 260.2 C275.1 263.0 279.7 262.1 287.1 256.8 C306.7 242.8 306.4 241.4 278.8 219.0 C263.9 207.0 254.1 197.8 230.8 174.0 C195.3 137.8 192.3 136.0 173.0 138.2 C149.9 140.9 137.9 155.0 122.4 197.2 C114.7 218.3 115.0 217.8 112.1 211.1 C108.4 202.4 109.2 197.3 115.6 189.3 C121.2 182.4 118.8 180.0 113.0 186.7 C104.5 196.3 104.1 204.0 111.3 218.4 C113.8 223.4 116.2 228.6 116.6 230.0 C121.7 248.8 134.3 255.9 186.3 269.5 C204.0 274.1 221.4 278.8 225.0 279.9 C232.9 282.3 239.1 282.5 242.9 280.6 Z M229.5 277.3 C228.4 277.0 227.1 276.4 226.7 276.0 C225.3 274.7 231.0 267.0 233.9 266.3 C237.2 265.6 239.5 263.6 243.2 258.2 C245.5 254.8 246.7 254.0 249.1 254.0 C252.6 254.0 255.8 250.9 258.5 245.0 C260.6 240.4 263.3 239.8 266.8 243.0 C270.8 246.8 267.9 252.8 260.5 256.0 C257.3 257.4 255.0 259.5 251.4 264.7 C242.1 278.0 239.3 279.6 229.5 277.3 Z M186.0 265.6 C112.3 246.3 108.4 239.2 135.5 173.5 C145.7 149.0 171.3 135.7 192.4 143.9 C198.9 146.5 198.1 145.7 240.0 188.4 C257.4 206.2 270.0 218.0 280.2 226.2 C297.8 240.3 299.4 243.9 290.8 249.4 C288.8 250.6 238.6 212.5 206.6 185.3 C202.4 181.8 200.0 181.1 200.0 183.4 C200.0 184.2 214.2 196.3 231.5 210.2 C248.9 224.1 262.6 235.6 262.1 235.8 C261.6 236.0 246.8 228.2 229.3 218.4 L197.5 200.8 L192.2 192.7 C185.5 182.5 185.6 176.0 192.6 176.0 C195.3 176.0 197.4 174.4 196.6 173.1 C195.6 171.5 191.4 171.7 188.0 173.5 C182.6 176.3 182.0 184.7 186.6 191.5 C188.8 194.6 188.3 195.2 185.0 193.5 C177.5 189.6 171.1 180.0 171.0 172.8 C171.0 168.3 168.4 167.5 167.4 171.6 C164.2 184.2 171.4 190.5 220.3 217.7 C260.5 240.1 258.6 238.5 253.5 246.2 C250.1 251.4 250.4 251.5 226.6 238.4 C189.6 218.1 176.1 209.9 169.0 203.2 C161.5 196.4 161.0 196.1 161.0 199.0 C161.0 205.1 176.7 215.3 235.2 247.4 C242.9 251.6 242.9 251.6 239.5 257.0 C235.2 263.7 234.5 263.8 220.7 257.9 C190.4 245.1 152.6 225.5 145.6 219.0 C140.5 214.2 138.9 213.1 138.4 214.4 C136.1 220.3 162.3 236.0 208.9 256.6 C229.4 265.7 228.6 265.0 224.5 269.9 C220.7 274.3 218.2 274.0 186.0 265.6 Z M271.3 256.5 L269.1 254.9 L271.0 251.7 C272.1 249.9 273.0 247.4 273.0 246.1 C273.0 243.3 274.2 243.6 280.5 248.2 C285.8 252.2 286.0 253.4 281.8 256.0 C277.9 258.4 274.2 258.5 271.3 256.5 Z"></path>
</svg>