<svg xmlns="http://www.w3.org/2000/svg" width="400" height="400" viewBox="0 0 400 400">
<path fill="currentColor" fill-rule="evenodd" d="M192.8 280.2 L189.0 279.9 L189.0 274.2 C189.0 258.7 191.0 258.0 238.5 258.0 C286.6 258.0 289.0 258.8 289.0 274.1 L289.0 280.0 L268.8 280.0 C257.6 280.0 236.8 280.2 222.5 280.3 C208.2 280.4 194.8 280.4 192.8 280.2 Z M122.0 244.0 C127.8 235.9 126.8 225.0 119.0 210.0 C108.0 189.1 107.5 187.9 107.5 181.3 C107.5 170.7 113.0 166.0 125.6 166.0 L132.6 166.0 L134.3 171.3 C140.2 190.0 172.6 222.1 199.0 235.5 C229.4 250.9 265.4 245.3 276.0 223.5 C280.1 215.0 278.9 213.4 256.0 197.8 C233.1 182.2 231.7 182.2 218.5 197.7 C214.8 202.0 211.3 205.8 210.6 206.2 C206.6 208.5 182.5 187.5 175.5 175.6 C172.0 169.6 172.1 169.4 184.4 156.2 C198.2 141.5 197.9 139.3 180.6 125.3 C164.6 112.3 157.5 112.4 144.3 125.6 C136.5 133.3 128.7 153.4 131.6 158.1 C132.5 159.6 128.1 161.0 122.8 161.0 C100.6 161.1 96.6 177.2 111.6 206.6 C121.7 226.5 122.9 232.5 118.2 240.4 C114.5 246.7 117.8 249.9 122.0 244.0 Z M222.1 238.5 C170.2 226.7 120.2 163.2 142.0 136.8 L143.9 134.5 L157.7 148.2 L171.5 162.0 L169.7 164.9 C162.0 177.9 204.5 219.3 215.3 209.2 C218.5 206.2 217.5 205.8 232.1 216.5 C239.2 221.7 247.8 227.6 251.1 229.6 C257.9 233.9 257.8 234.6 249.5 237.4 C242.4 239.8 229.9 240.3 222.1 238.5 Z M247.4 221.2 C219.7 202.5 219.9 202.8 226.9 195.9 C233.6 189.1 234.4 189.2 251.3 200.7 C276.2 217.6 276.3 217.7 267.5 226.4 C262.6 231.3 262.3 231.2 247.4 221.2 Z M160.6 144.1 L146.7 130.1 L150.0 127.0 C160.4 117.3 167.1 118.7 183.1 133.9 C190.8 141.3 190.7 142.4 182.3 151.1 C174.2 159.6 176.9 160.5 160.6 144.1 Z"></path>
</svg>