<svg xmlns="http://www.w3.org/2000/svg" width="400" height="400" viewBox="0 0 400 400">
<path fill="currentColor" fill-rule="evenodd" d="M274.0 319.2 C281.4 315.5 281.0 322.0 281.0 213.2 C281.0 93.2 283.8 105.0 255.2 105.0 L238.9 105.0 L236.9 101.5 C234.0 96.7 232.4 96.0 223.6 96.0 C215.2 96.0 213.0 95.4 213.0 93.3 C213.0 80.0 190.6 78.4 187.4 91.6 C186.4 95.6 185.5 96.0 177.3 96.0 C168.6 96.0 165.8 97.2 163.4 101.6 L161.5 105.0 L145.0 105.0 C116.1 105.0 118.9 93.0 119.2 213.7 C119.5 322.8 119.0 314.6 126.3 319.0 C131.0 321.9 268.3 322.1 274.0 319.2 Z M126.8 314.1 L123.5 311.2 L123.5 212.5 L123.5 113.8 L126.3 111.4 C129.0 109.1 129.6 109.0 145.1 109.0 L161.1 109.0 L164.9 113.0 L168.7 117.0 L200.1 117.0 C233.6 116.9 233.0 117.0 236.4 111.7 L238.2 109.0 L254.6 109.0 C270.4 109.0 271.0 109.1 273.7 111.4 L276.5 113.8 L276.8 210.2 C277.0 277.5 276.8 307.6 276.0 310.2 C274.0 317.3 277.2 317.0 199.6 317.0 L130.0 317.0 L126.8 314.1 Z M213.5 215.5 C235.8 193.3 239.4 189.0 235.7 189.0 C235.0 189.0 224.1 199.3 211.5 212.0 C185.1 238.4 188.1 236.7 180.5 228.9 C171.1 219.4 167.1 216.5 166.4 218.5 C165.6 220.5 184.4 240.0 187.2 240.0 C188.1 240.0 200.0 229.0 213.5 215.5 Z M232.5 159.0 C232.5 156.5 166.7 156.8 166.2 159.3 C165.9 160.9 167.8 161.0 199.2 160.8 C228.0 160.5 232.5 160.3 232.5 159.0 Z M168.1 110.4 C165.7 107.3 165.6 106.7 167.1 103.7 C168.9 100.3 169.9 100.0 179.7 100.0 C189.6 100.0 191.0 99.3 191.0 94.0 C191.0 90.7 196.3 86.0 200.0 86.0 C204.3 86.0 209.0 90.7 209.0 94.9 C209.0 98.7 212.2 100.3 218.2 99.6 C230.1 98.1 238.2 104.8 232.0 111.0 C230.1 112.9 228.7 113.0 200.1 113.0 L170.1 113.0 L168.1 110.4 Z"></path>
</svg>