<svg xmlns="http://www.w3.org/2000/svg" width="400" height="400" viewBox="0 0 400 400">
<path fill="currentColor" fill-rule="evenodd" d="M122.6 248.4 C142.2 244.4 156.3 230.7 162.8 209.5 L163.7 206.5 L221.7 206.2 L279.8 206.0 L280.4 209.5 L281.1 213.0 L287.9 213.0 C294.4 213.0 294.8 213.1 295.4 215.5 C296.3 219.1 304.7 219.3 305.2 215.8 C305.7 212.3 310.7 212.0 311.6 215.4 C312.1 217.6 312.7 217.9 318.3 218.2 C329.7 218.8 329.9 218.7 330.2 212.2 L330.5 206.5 L334.5 206.3 C336.7 206.2 339.1 206.1 339.8 206.1 C340.6 206.0 341.0 203.8 341.0 198.5 L341.0 191.0 L334.8 185.1 C331.3 181.9 327.1 178.1 325.5 176.7 L322.5 174.3 L240.0 173.7 C173.6 173.2 157.5 172.9 157.1 171.8 C156.9 171.1 153.6 167.3 149.7 163.3 C107.5 119.6 36.7 166.4 63.0 220.6 C74.2 243.7 96.0 253.9 122.6 248.4 Z M100.5 238.6 C70.6 232.4 58.0 194.5 78.2 171.5 C97.2 150.0 131.8 153.0 147.5 177.6 C151.9 184.5 144.9 184.0 240.6 184.3 L321.6 184.5 L326.6 188.8 C329.3 191.2 331.5 193.7 331.5 194.3 C331.5 195.0 305.3 195.4 242.5 195.4 L153.5 195.5 L153.2 198.0 C150.4 226.1 127.0 244.1 100.5 238.6 Z"></path>
</svg>