<svg xmlns="http://www.w3.org/2000/svg" width="400" height="400" viewBox="0 0 400 400">
<path fill="currentColor" fill-rule="evenodd" d="M328.9 363.7 C330.2 363.1 332.3 361.2 333.4 359.7 L335.5 356.9 L335.5 193.1 C335.5 36.2 335.4 29.3 333.7 26.6 C329.8 20.7 337.4 21.0 189.6 21.2 L54.1 21.5 L51.3 23.6 C45.9 27.6 46.1 20.6 46.1 193.3 C46.0 368.0 45.7 358.2 51.5 362.8 L54.3 365.0 L190.4 365.0 C296.4 365.0 327.0 364.7 328.9 363.7 Z M54.7 357.2 C52.3 354.6 52.1 32.6 54.4 29.4 C56.3 26.9 324.3 26.3 327.3 28.9 C330.0 31.1 329.9 354.9 327.2 357.3 C324.2 360.0 57.1 359.9 54.7 357.2 Z M307.6 355.5 C335.6 347.2 329.7 304.8 300.5 304.7 C270.5 304.6 265.1 347.3 294.0 356.1 C298.0 357.3 302.3 357.1 307.6 355.5 Z M292.6 352.5 C277.0 347.0 272.6 325.7 284.6 313.6 C293.3 304.9 309.5 305.7 317.5 315.2 C332.7 333.3 314.7 360.4 292.6 352.5 Z M302.5 343.3 C303.4 337.7 303.8 337.6 309.3 341.2 C315.1 344.9 316.2 344.3 312.6 339.2 C309.1 334.1 309.3 333.1 313.9 332.4 C319.2 331.5 320.7 330.5 319.2 328.7 C318.5 328.0 318.2 327.1 318.5 326.8 C319.3 326.1 316.9 320.0 315.9 320.0 C314.7 320.0 314.8 321.4 316.2 324.5 C317.6 327.7 316.9 328.4 313.1 327.5 C309.3 326.7 309.3 325.9 312.5 321.2 C315.8 316.5 313.7 315.6 308.5 319.6 C304.4 322.7 303.5 322.3 302.3 316.1 C301.2 310.1 299.3 309.7 298.5 315.3 C297.4 322.3 296.8 322.8 292.1 319.7 C285.5 315.3 284.6 316.0 288.6 322.0 C291.7 326.6 291.6 326.9 286.6 327.7 C283.0 328.3 283.0 328.2 284.0 325.6 C284.5 324.1 285.0 322.1 285.0 321.2 C284.9 318.1 282.0 323.0 282.0 326.2 C282.0 327.7 281.6 329.0 281.0 329.0 C277.8 329.0 280.8 331.0 285.5 332.0 C291.6 333.3 291.9 333.9 288.8 338.3 L286.6 341.3 L284.8 337.0 C283.8 334.7 282.7 333.0 282.4 333.3 C281.4 334.3 283.1 340.1 284.6 340.7 C285.4 341.0 286.0 341.8 286.0 342.6 C286.0 344.5 286.5 344.4 290.8 341.5 C295.9 338.0 298.0 338.6 298.0 343.5 C298.0 350.9 301.2 350.7 302.5 343.3 Z M272.2 313.1 C274.3 313.0 275.0 312.5 275.0 311.0 C275.0 308.1 84.8 308.3 84.2 311.2 C83.8 313.2 235.2 314.8 272.2 313.1 Z M273.9 271.1 C278.5 268.2 272.8 268.0 178.9 268.0 C83.1 268.0 77.5 268.2 85.2 271.3 C87.5 272.2 272.5 272.0 273.9 271.1 Z M288.8 252.2 C288.5 250.6 282.8 250.5 186.5 250.5 C90.2 250.5 84.5 250.6 84.2 252.2 C83.9 253.9 89.3 254.0 186.5 254.0 C283.7 254.0 289.1 253.9 288.8 252.2 Z M277.4 240.4 C285.8 237.2 280.3 237.0 181.5 237.0 C83.0 237.0 77.5 237.2 85.2 240.3 C87.1 241.1 275.5 241.1 277.4 240.4 Z M278.8 216.2 C278.4 214.3 86.7 212.9 84.7 214.9 C81.7 217.9 86.3 218.0 182.1 218.0 C274.0 218.0 279.1 217.9 278.8 216.2 Z M289.0 203.0 C289.0 200.7 85.9 199.7 84.5 202.0 C82.7 204.9 87.5 205.0 187.1 205.0 C288.3 205.0 289.0 205.0 289.0 203.0 Z M253.0 178.1 C253.0 175.0 252.9 175.0 168.2 175.0 C87.5 175.0 83.1 175.2 84.3 178.4 C85.4 181.1 253.0 180.8 253.0 178.1 Z M289.0 153.0 C289.0 151.0 288.3 151.0 186.5 151.0 C82.1 151.0 81.4 151.0 84.7 154.3 C86.7 156.3 289.0 155.0 289.0 153.0 Z M288.8 123.2 C288.4 121.3 86.7 119.9 84.7 121.9 C81.7 124.9 86.3 125.0 187.1 125.0 C283.8 125.0 289.1 124.9 288.8 123.2 Z M288.8 75.2 L289.1 73.0 L187.1 73.0 C117.1 73.0 84.9 73.3 84.5 74.0 C82.0 78.1 79.9 78.0 186.7 77.8 L288.5 77.5 L288.8 75.2 Z"></path>
</svg>