<svg xmlns="http://www.w3.org/2000/svg" width="400" height="400" viewBox="0 0 400 400">
<path fill="currentColor" fill-rule="evenodd" d="M151.2 254.7 L157.9 246.1 L172.8 245.8 C187.6 245.5 187.7 245.5 192.9 242.3 L198.0 239.1 L202.3 241.3 C206.3 243.3 207.6 243.4 225.0 243.2 L243.6 242.9 L246.6 247.2 C248.2 249.6 251.6 254.8 253.9 258.8 C256.3 262.8 258.4 265.9 258.6 265.8 C258.7 265.6 260.9 261.4 263.4 256.5 C270.3 242.7 268.6 243.7 284.0 243.4 C301.9 243.0 307.3 241.0 312.2 233.2 L314.5 229.5 L314.3 190.5 C314.0 126.1 314.6 126.8 252.0 127.0 C208.5 127.1 200.3 127.9 194.8 132.7 C193.4 133.9 192.5 133.9 188.8 132.8 C185.6 131.8 175.1 131.5 146.5 131.5 C82.9 131.6 82.9 131.6 84.4 193.6 C85.4 236.8 90.2 243.5 120.9 244.5 C128.3 244.8 134.4 245.1 134.4 245.2 C136.7 250.0 138.1 253.9 139.6 259.8 C141.3 266.6 141.6 267.0 143.0 265.2 C143.8 264.2 147.5 259.5 151.2 254.7 Z M142.6 257.8 C141.1 252.7 137.6 243.3 136.8 242.4 C136.3 241.6 130.5 241.1 120.7 240.8 C94.3 240.1 90.9 235.7 88.8 199.8 C85.2 137.1 86.3 135.7 144.0 135.7 C203.4 135.7 199.3 131.7 199.4 189.9 L199.5 230.5 L197.2 234.2 C192.7 241.4 189.6 242.5 171.7 242.9 L155.9 243.2 L150.5 250.5 C144.6 258.5 143.2 259.8 142.6 257.8 Z M251.5 247.8 L245.6 238.7 L229.0 239.2 C203.3 240.0 199.2 238.4 201.5 228.5 C204.6 215.6 202.8 146.8 199.3 140.8 C194.5 132.6 199.1 131.7 247.0 131.2 C311.4 130.6 309.2 128.8 310.0 183.0 C310.8 240.2 311.3 239.3 283.0 239.4 L268.5 239.5 L264.0 247.9 C258.3 258.6 258.6 258.6 251.5 247.8 Z"></path>
</svg>