<svg xmlns="http://www.w3.org/2000/svg" width="400" height="400" viewBox="0 0 400 400">
<path fill="currentColor" fill-rule="evenodd" d="M207.4 317.9 C272.3 274.0 314.1 175.6 299.5 100.7 C297.4 90.2 297.0 90.0 289.1 93.9 C259.0 109.2 230.2 104.8 206.9 81.6 C200.1 74.9 200.0 74.8 194.4 80.5 C170.4 104.5 143.8 109.2 113.0 94.9 C102.4 90.0 102.7 89.8 100.5 101.0 C86.1 175.0 127.8 273.4 192.5 317.8 C199.9 322.9 199.9 322.9 207.4 317.9 Z M189.7 308.4 C146.1 275.7 112.8 216.3 105.5 158.0 C103.1 139.3 104.2 102.5 107.2 99.4 C107.4 99.2 111.2 100.6 115.6 102.5 C143.6 114.5 171.3 109.6 194.7 88.6 L199.9 83.9 L207.7 90.5 C221.1 101.7 235.2 107.6 251.0 108.7 C263.8 109.6 273.1 107.4 291.7 99.4 C295.8 97.6 297.7 138.2 294.5 160.4 C286.4 218.3 253.2 276.5 210.0 308.7 C199.6 316.4 200.4 316.4 189.7 308.4 Z M202.6 204.1 C202.8 203.9 204.1 204.5 205.6 205.4 C208.8 207.6 209.7 206.9 207.6 203.8 C205.2 200.4 205.6 200.0 210.8 200.0 C219.6 200.0 233.9 198.7 233.5 198.0 C233.2 197.6 227.2 197.1 220.0 196.8 C205.5 196.3 205.0 196.1 207.4 192.6 C209.7 189.0 209.4 188.6 206.0 190.6 C202.1 193.0 202.1 193.1 201.4 179.7 C200.5 165.3 199.5 165.4 198.7 180.1 C197.9 192.9 198.0 192.9 194.4 190.6 C191.1 188.4 190.4 189.1 192.6 192.4 C194.9 196.1 194.6 196.2 180.8 196.8 C163.5 197.4 163.1 198.7 179.8 199.5 C194.5 200.3 195.4 200.6 192.5 204.4 C190.1 207.6 190.8 208.3 194.1 206.0 C198.0 203.1 197.9 202.9 198.6 215.6 C199.4 231.0 200.2 231.5 201.3 217.0 C201.8 210.1 202.4 204.3 202.6 204.1 Z"></path>
</svg>