<svg xmlns="http://www.w3.org/2000/svg" width="400" height="400" viewBox="0 0 400 400">
<path fill="currentColor" fill-rule="evenodd" d="M98.0 276.9 C154.9 274.9 308.3 275.9 342.5 278.5 C346.9 278.9 349.1 278.7 348.5 278.1 C347.6 277.3 333.3 275.8 301.5 273.2 L292.5 272.5 L292.0 228.9 L291.5 185.3 L288.8 182.9 C287.3 181.6 267.4 163.4 244.5 142.5 C220.8 120.9 202.1 104.5 201.0 104.5 C198.5 104.5 95.9 199.5 95.2 202.4 C94.2 206.7 99.1 203.3 113.5 189.7 C153.6 152.0 200.2 109.0 200.9 109.0 C201.6 109.0 245.6 148.7 280.8 181.0 L288.0 187.7 L288.0 229.8 L288.0 272.0 L285.6 272.0 C282.0 272.0 282.0 271.8 282.0 229.5 L282.0 190.1 L241.8 153.5 C219.7 133.4 201.3 117.0 200.9 117.0 C200.2 117.0 144.6 168.5 128.8 183.8 L121.0 191.2 L121.0 231.1 C121.0 259.6 120.7 271.1 119.9 271.6 C119.2 272.0 112.6 272.7 105.1 273.1 C64.7 275.6 27.7 279.8 58.0 278.5 C64.3 278.2 82.3 277.5 98.0 276.9 Z M125.7 271.3 C125.3 271.0 125.0 253.1 125.0 231.6 L125.0 192.5 L147.3 171.8 C159.5 160.5 176.2 144.8 184.5 137.1 C192.8 129.4 200.1 123.0 200.9 123.0 C202.1 123.0 219.5 138.4 259.7 175.3 L278.0 192.1 L277.8 231.8 L277.5 271.5 L250.0 271.5 L222.5 271.5 L222.0 236.0 L221.5 200.5 L201.0 200.5 L180.5 200.5 L180.0 236.0 C179.7 255.5 179.3 271.6 179.2 271.8 C178.7 272.3 126.3 271.9 125.7 271.3 Z M184.0 238.0 L184.0 205.0 L199.0 205.0 L214.0 205.0 L214.0 238.0 L214.0 271.0 L199.0 271.0 L184.0 271.0 L184.0 238.0 Z"></path>
</svg>