<svg xmlns="http://www.w3.org/2000/svg" width="400" height="400" viewBox="0 0 400 400">
<path fill="currentColor" fill-rule="evenodd" d="M329.0 255.0 C329.0 252.1 69.8 252.3 69.2 255.2 C68.9 256.9 75.6 257.0 198.9 257.0 C328.4 257.0 329.0 257.0 329.0 255.0 Z M94.4 216.1 C95.5 214.4 92.3 213.0 84.6 211.9 C73.2 210.2 72.6 209.5 72.2 196.5 C71.6 178.9 69.9 180.1 100.2 177.0 C122.9 174.8 123.3 174.7 140.5 166.5 C147.1 163.3 157.8 158.3 164.3 155.4 L176.2 150.0 L200.8 150.0 L225.5 150.0 L239.9 163.7 L254.3 177.4 L268.4 178.3 C316.3 181.2 321.9 181.6 323.4 182.9 C325.7 184.8 325.7 205.0 323.4 208.4 C321.7 211.1 322.8 212.5 325.9 211.5 C329.3 210.5 330.2 205.9 329.9 193.1 C329.3 175.8 331.6 176.8 290.0 175.0 C274.9 174.4 261.1 173.7 259.3 173.4 C257.0 173.1 252.9 169.8 242.6 159.9 C225.7 143.6 224.4 143.3 184.0 145.9 L172.5 146.6 L148.5 157.7 C120.1 170.8 121.4 170.5 98.5 172.5 C66.2 175.5 67.9 174.4 67.2 193.1 C66.7 206.8 67.6 210.4 72.5 213.6 C76.5 216.2 93.2 218.1 94.4 216.1 Z M158.7 165.5 L178.5 156.0 L201.3 156.0 C222.5 156.0 224.1 155.9 223.8 154.2 C223.5 152.7 221.5 152.5 200.8 152.2 L178.2 152.0 L157.6 161.9 C143.8 168.6 137.0 172.4 137.0 173.4 C137.0 175.8 137.5 175.7 158.7 165.5 Z"></path>
</svg>